<?xml version="1.0" standalone="no"?>
<!DOCTYPE svg PUBLIC "-//W3C//DTD SVG 20010904//EN"
 "http://www.w3.org/TR/2001/REC-SVG-20010904/DTD/svg10.dtd">
<svg version="1.0" xmlns="http://www.w3.org/2000/svg"
 width="1200.000000pt" height="1200.000000pt" viewBox="0 0 1200.000000 1200.000000"
 preserveAspectRatio="xMidYMid meet">
<metadata>
Created by potrace 1.11, written by Peter Selinger 2001-2013
</metadata>
<g transform="translate(0.000000,1200.000000) scale(0.100000,-0.100000)"
fill="#000000" stroke="none">
<path d="M5290 11036 c0 -3 14 -25 30 -50 42 -62 62 -122 62 -186 0 -64 -20
-124 -62 -186 -16 -25 -30 -47 -30 -50 0 -2 320 -4 710 -4 391 0 710 2 710 4
0 3 -14 25 -30 50 -84 124 -84 247 -1 371 17 25 31 48 31 51 0 2 -319 4 -710
4 -390 0 -710 -2 -710 -4z"/>
<path d="M978 10924 c9 -43 17 -73 20 -66 2 7 8 10 13 7 4 -3 1 -24 -8 -46
-12 -30 -15 -60 -11 -117 3 -42 2 -88 -2 -102 -4 -16 -2 -31 8 -42 8 -9 17
-37 19 -62 5 -37 0 -54 -21 -91 -17 -29 -25 -53 -21 -65 4 -11 10 -18 15 -15
16 10 20 -28 5 -45 -19 -21 -19 -67 0 -145 19 -77 19 -129 0 -145 -8 -7 -12
-16 -9 -21 11 -19 22 -7 34 36 7 25 16 47 20 50 3 2 6 -41 6 -95 -1 -93 -2
-100 -24 -110 -28 -12 -20 -30 14 -30 22 0 24 -4 24 -48 0 -27 -6 -56 -13 -66
-13 -18 -15 -18 -40 -1 -26 16 -27 16 -27 0 0 -10 11 -33 25 -50 22 -29 23
-36 13 -71 -7 -26 -8 -67 -2 -119 13 -121 6 -250 -17 -353 -19 -82 -20 -100
-10 -147 11 -48 10 -71 -6 -129 -5 -18 -4 -18 18 -2 35 24 42 20 36 -19 -3
-19 -2 -35 4 -35 14 0 11 -31 -12 -98 -11 -34 -25 -60 -30 -56 -5 3 -9 -23 -9
-60 0 -63 11 -89 26 -64 5 7 7 24 6 38 -2 14 4 34 12 45 15 19 15 19 16 -6 0
-15 7 -29 15 -33 41 -16 -8 -106 -58 -106 -23 0 -23 -1 -14 -61 7 -40 7 -71 0
-94 l-11 -33 34 5 c31 5 34 4 34 -21 0 -14 5 -26 10 -26 6 0 10 7 10 15 0 8 5
15 10 15 17 0 11 -46 -7 -63 -10 -8 -31 -19 -46 -22 -44 -11 -68 -95 -27 -95
17 0 18 -5 13 -48 -3 -30 -1 -58 7 -71 16 -31 5 -38 -21 -15 l-22 19 7 -65 c3
-36 9 -92 13 -125 6 -63 -4 -70 -17 -13 -8 31 -8 31 -9 -14 l-1 -48 48 0 c149
1 314 32 353 66 9 8 51 19 93 23 48 6 84 15 96 26 12 11 31 15 56 13 40 -3 61
-28 24 -28 -32 0 -15 -17 25 -24 19 -4 49 -20 67 -36 45 -41 91 -45 255 -21
102 15 170 20 246 16 58 -2 139 0 179 5 40 6 101 13 136 16 46 5 65 12 73 25
9 17 11 17 57 -3 67 -30 231 -38 256 -13 17 17 19 17 59 -2 49 -24 143 -38
152 -23 4 6 39 7 96 3 78 -5 89 -4 89 10 0 27 47 31 149 13 123 -21 153 -20
184 4 23 18 28 19 63 6 34 -12 150 -33 194 -36 8 0 35 -3 60 -6 27 -3 70 1
107 10 87 23 133 21 140 -4 5 -20 28 -27 36 -12 3 4 7 23 11 42 5 29 4 31 -4
12 -10 -24 -30 -22 -30 4 0 8 9 42 20 75 22 65 19 119 -5 86 -11 -16 -35 -24
-35 -12 0 3 7 17 16 30 13 19 14 33 6 70 -9 41 -8 45 10 45 16 0 19 6 16 38
-3 33 -8 39 -50 60 -45 21 -48 25 -48 60 l1 37 14 -30 c11 -26 13 -27 14 -8 2
42 11 52 39 44 l27 -8 0 93 c0 90 -1 94 -21 94 -26 0 -74 53 -74 80 0 11 6 23
14 27 8 4 16 19 18 33 l3 25 18 -27 c14 -20 16 -31 8 -46 -8 -15 -7 -23 4 -32
9 -7 18 -10 22 -7 10 10 7 115 -4 129 -16 20 -53 139 -47 149 3 5 10 6 16 3 8
-5 9 -1 5 10 -4 10 -10 29 -14 44 -6 27 -8 26 45 5 14 -6 15 -1 2 51 -6 28 -5
51 5 81 13 37 12 50 -6 126 -19 77 -33 185 -30 234 1 11 3 86 4 166 4 132 6
150 25 174 12 15 22 31 22 35 0 17 -15 19 -31 4 -28 -25 -47 -10 -54 40 -9 56
-3 73 26 78 32 4 34 24 3 32 -22 6 -25 11 -19 29 4 12 7 56 6 97 -2 80 9 82
30 6 6 -24 14 -35 20 -29 6 6 3 21 -7 41 -14 29 -14 39 1 112 22 108 22 158 0
174 -17 12 -17 14 3 34 28 28 28 39 -4 100 -28 54 -26 108 3 138 12 12 13 23
5 57 -8 29 -8 45 0 54 16 20 -1 129 -28 176 -14 26 -20 45 -14 52 11 14 1 57
-11 49 -6 -3 -55 4 -110 16 -57 13 -112 19 -127 16 -15 -4 -49 -9 -77 -11 -27
-2 -85 -13 -128 -24 -67 -18 -81 -19 -100 -7 -38 24 -72 26 -158 11 -108 -19
-166 -19 -176 -1 -6 12 -40 16 -158 18 -142 3 -152 2 -187 -20 -23 -14 -39
-19 -43 -12 -3 5 -3 11 2 11 25 4 -62 17 -117 18 -46 0 -86 -7 -135 -24 -83
-29 -75 -28 -75 -12 0 22 -203 47 -375 47 -89 0 -187 6 -240 15 -49 8 -122 15
-162 15 -66 0 -75 -3 -106 -29 -18 -17 -55 -35 -83 -42 -41 -11 -45 -14 -25
-19 47 -11 36 -30 -17 -30 -28 0 -52 5 -54 11 -4 12 -70 28 -119 29 -35 0 -69
23 -69 47 0 6 -58 13 -147 17 -82 3 -173 9 -204 12 l-57 6 16 -78z m546 -281
c3 -4 -6 -12 -21 -19 l-28 -12 38 -1 c38 -1 38 -1 31 -36 l-6 -34 33 10 c31 9
85 6 132 -7 12 -4 17 0 17 16 0 50 98 106 114 65 3 -8 18 -15 33 -15 27 -1 27
-1 8 -16 -11 -8 -34 -14 -50 -12 -34 2 -58 -9 -50 -23 7 -11 135 -12 135 -1 0
7 124 52 143 52 4 0 7 -7 7 -14 0 -12 6 -13 30 -5 42 15 52 9 35 -23 -16 -31
-14 -32 35 -18 24 7 52 6 91 -2 50 -10 69 -9 156 11 54 12 114 22 133 22 69 0
117 0 251 -4 117 -3 140 -6 165 -24 39 -27 59 -20 37 13 -22 34 -7 46 61 52
54 4 54 4 58 -24 4 -35 19 -38 33 -6 8 18 15 22 35 16 28 -7 124 -6 155 2 20
5 20 5 1 -10 -11 -9 -23 -16 -27 -16 -4 0 -20 -5 -35 -10 -20 -8 -24 -14 -16
-22 8 -8 15 -6 27 6 20 19 50 20 135 1 87 -19 149 -19 156 0 8 20 21 19 41 -5
22 -26 32 -25 89 5 50 27 78 31 117 16 19 -8 27 -22 37 -63 7 -29 19 -68 26
-86 11 -28 11 -34 -1 -38 -28 -11 -36 -75 -20 -165 20 -115 19 -166 -2 -180
-16 -9 -18 -29 -18 -157 0 -122 3 -153 18 -179 17 -32 19 -50 5 -46 -11 4 -21
-104 -15 -161 3 -28 15 -73 27 -101 18 -41 19 -51 7 -60 -23 -17 -47 -206 -46
-370 0 -94 -6 -187 -16 -250 -9 -55 -16 -125 -17 -155 -1 -57 20 -113 44 -123
8 -2 20 -29 28 -58 11 -43 15 -49 19 -31 10 38 26 30 29 -16 2 -28 -2 -47 -12
-57 -8 -9 -18 -42 -22 -74 -5 -45 -10 -58 -20 -54 -8 3 -14 1 -14 -4 0 -15
-47 -33 -83 -33 -18 0 -53 11 -79 25 -36 19 -52 23 -70 16 -14 -6 -17 -10 -8
-11 9 -1 5 -5 -8 -11 -17 -6 -27 -5 -38 6 -19 19 -60 19 -144 0 -85 -19 -135
-19 -150 0 -7 8 -16 12 -21 9 -19 -11 -7 -22 36 -34 25 -7 47 -16 50 -20 2 -3
-40 -6 -94 -6 -86 1 -99 3 -107 20 -13 28 -29 25 -32 -6 -3 -26 -6 -28 -51
-28 -26 0 -56 6 -66 14 -19 14 -19 15 -2 33 9 11 17 23 17 26 0 15 -35 6 -65
-17 -29 -22 -35 -23 -79 -13 -35 8 -74 7 -149 -1 -113 -14 -227 -6 -337 23
-56 15 -74 16 -127 5 -34 -6 -72 -9 -85 -5 -65 19 -61 20 -43 -16 l17 -32 -40
7 c-28 4 -42 2 -45 -7 -3 -9 -21 -6 -75 11 -40 13 -72 27 -72 33 0 10 -99 13
-124 3 -29 -11 1 -34 35 -27 17 3 35 0 44 -7 21 -18 19 -32 -5 -25 -13 4 -22
1 -26 -9 -11 -28 -59 -19 -88 15 -14 17 -26 36 -26 43 0 10 -23 13 -90 12
l-90 -1 6 -27 c5 -25 3 -28 -20 -28 -33 0 -42 -16 -13 -25 30 -9 4 -19 -29
-11 -17 5 -31 20 -44 50 -14 34 -25 46 -48 51 -28 6 -30 10 -34 62 -3 36 -11
60 -21 68 -11 8 -17 27 -17 53 0 48 14 62 31 30 12 -21 13 -21 24 20 7 23 24
55 38 72 38 45 42 88 21 224 -12 81 -18 167 -17 261 1 80 -4 183 -12 239 -8
55 -15 112 -15 128 0 18 -5 28 -15 28 -20 0 -19 15 6 80 27 71 29 218 3 237
-15 11 -15 15 4 55 24 50 39 142 24 152 -6 3 -8 39 -5 90 5 78 4 85 -16 95
-26 14 -27 45 -6 154 20 107 19 149 -6 180 -14 19 -17 31 -11 44 5 10 15 44
22 76 7 31 17 57 22 57 5 0 17 20 28 44 17 40 30 51 66 55 6 0 14 -2 18 -6z"/>
<path d="M1990 10058 c-6 -13 -14 -30 -19 -38 -22 -37 -27 -75 -14 -96 11 -18
11 -35 2 -94 -9 -54 -9 -74 -1 -79 16 -10 18 -160 3 -189 -8 -16 -9 -28 -1
-41 14 -27 13 -71 -4 -119 -8 -23 -11 -44 -7 -47 12 -7 25 -106 26 -205 1 -47
5 -124 10 -172 7 -80 6 -89 -14 -114 -11 -15 -21 -36 -21 -47 0 -16 -3 -17
-15 -7 -13 11 -15 8 -15 -14 0 -14 5 -26 10 -26 6 0 10 -11 10 -25 0 -14 9
-33 21 -43 11 -9 25 -27 30 -39 5 -13 16 -23 26 -23 15 0 16 2 3 10 -13 8 -12
10 3 10 9 0 17 8 17 18 0 26 97 27 105 0 9 -28 36 -37 65 -22 l25 14 -32 0
c-18 0 -33 4 -33 9 0 21 43 21 95 2 62 -23 68 -25 61 -12 -3 4 7 6 22 3 23 -4
25 -3 15 10 -11 12 -2 14 70 12 45 -1 111 -7 145 -12 35 -6 69 -9 75 -6 7 2
46 6 87 7 41 2 83 7 94 12 15 7 17 5 11 -13 -6 -20 -3 -22 29 -22 28 0 36 4
36 18 1 16 2 16 13 1 10 -13 21 -15 52 -9 22 4 32 8 22 9 -10 0 -15 6 -12 11
4 6 13 7 22 2 8 -5 35 -5 59 -1 45 9 150 5 197 -7 41 -10 77 12 77 47 0 15 5
31 10 34 6 3 10 18 9 33 0 15 -3 21 -6 14 -6 -15 -23 -6 -23 14 0 8 -10 28
-22 44 -20 28 -21 33 -10 132 6 57 14 156 16 222 3 65 10 124 16 131 8 10 8
20 -1 36 -6 13 -11 47 -10 76 2 65 2 68 -5 176 -4 60 -2 92 6 101 8 10 9 40 4
99 -4 52 -3 87 3 90 7 4 6 24 -2 54 -14 54 1 50 -153 39 -35 -3 -83 -2 -106 3
-24 4 -51 4 -59 -1 -9 -5 -18 -4 -22 2 -3 5 2 11 12 11 10 1 0 5 -22 9 -31 6
-42 4 -52 -9 -11 -15 -12 -15 -13 2 0 13 -8 17 -36 17 -32 0 -35 -2 -29 -22 6
-18 4 -20 -11 -13 -11 5 -53 10 -94 12 -41 1 -80 5 -87 7 -6 3 -40 0 -75 -6
-34 -5 -100 -11 -144 -12 -69 -2 -81 0 -76 12 4 12 0 14 -16 10 -12 -4 -20 -2
-16 3 7 13 2 12 -61 -12 -52 -19 -95 -19 -95 2 0 5 15 9 33 10 27 0 29 2 12 9
-35 15 -55 11 -66 -13 -9 -21 -18 -24 -60 -23 -39 1 -49 4 -49 19 0 9 -7 17
-16 17 -8 0 -12 5 -9 10 3 6 1 10 -5 10 -6 0 -15 -10 -20 -22z"/>
<path d="M9990 10984 c-41 -7 -145 -13 -230 -14 -177 0 -380 -25 -380 -47 0
-16 8 -17 -75 12 -49 17 -89 24 -135 24 -73 -1 -125 -10 -122 -21 5 -19 0 -18
-35 4 -36 22 -46 23 -188 20 -118 -2 -152 -6 -158 -18 -10 -18 -68 -18 -176 1
-86 15 -120 13 -158 -11 -19 -12 -33 -11 -100 7 -43 11 -100 22 -128 24 -27 2
-62 7 -77 11 -15 3 -70 -3 -127 -16 -55 -12 -104 -19 -110 -16 -12 8 -22 -35
-11 -49 6 -7 0 -26 -14 -52 -27 -47 -44 -156 -28 -176 8 -9 8 -25 0 -54 -8
-34 -7 -45 5 -57 29 -30 31 -84 3 -138 -32 -61 -32 -72 -4 -100 18 -18 19 -23
6 -32 -26 -20 -28 -46 -7 -152 18 -97 19 -108 4 -136 -9 -19 -12 -35 -6 -41 5
-5 16 14 26 47 10 31 20 56 22 56 3 0 4 -35 3 -77 -1 -43 1 -88 5 -100 6 -18
3 -23 -19 -29 -31 -8 -29 -28 3 -32 29 -5 35 -22 26 -78 -7 -50 -26 -65 -54
-40 -16 15 -31 13 -31 -5 0 -4 11 -21 25 -38 24 -28 25 -34 18 -93 -6 -40 -5
-98 3 -158 7 -52 10 -98 7 -103 -2 -4 -6 -35 -8 -70 -2 -34 -13 -100 -24 -146
-18 -76 -19 -89 -6 -126 10 -30 11 -53 5 -81 -13 -52 -12 -57 3 -51 52 21 50
22 44 -5 -4 -15 -10 -34 -14 -44 -4 -11 -3 -15 5 -10 6 3 13 2 16 -3 6 -10
-31 -129 -47 -149 -11 -14 -14 -119 -4 -129 4 -3 13 0 22 7 11 9 12 17 4 32
-8 15 -6 26 8 46 l18 27 3 -25 c2 -14 10 -29 18 -33 8 -4 14 -16 14 -27 0 -27
-48 -80 -74 -80 -20 0 -21 -4 -21 -94 l0 -93 27 8 c28 8 37 -2 39 -44 1 -19 3
-18 14 8 l14 30 1 -37 c0 -35 -3 -39 -47 -60 -43 -21 -48 -27 -51 -60 -3 -32
0 -38 16 -38 18 0 19 -4 10 -45 -8 -37 -7 -51 6 -70 9 -13 16 -27 16 -30 0
-12 -24 -4 -35 12 -24 33 -27 -21 -5 -86 11 -33 20 -67 20 -75 0 -26 -20 -28
-30 -4 -8 19 -9 17 -4 -12 4 -19 8 -38 11 -42 8 -15 31 -8 36 12 7 25 53 27
140 4 37 -9 80 -13 107 -10 25 3 52 6 60 6 44 3 160 24 194 36 35 13 40 12 63
-6 31 -24 61 -25 184 -4 102 18 149 14 149 -13 0 -14 11 -15 88 -10 56 4 92 3
99 -4 13 -13 126 5 155 25 25 18 53 21 43 7 -19 -31 194 -25 267 7 46 20 48
20 57 3 8 -13 27 -20 73 -25 35 -3 96 -10 136 -16 40 -5 121 -7 179 -5 76 4
144 -1 246 -16 164 -24 210 -20 255 21 18 16 48 32 67 36 40 7 57 24 25 24
-37 0 -16 25 24 28 25 2 44 -2 56 -13 12 -11 48 -20 96 -26 42 -4 84 -15 93
-23 39 -34 204 -65 354 -66 l47 0 -1 48 c-1 45 -1 45 -9 14 -4 -18 -11 -36
-15 -40 -7 -7 -5 37 11 183 l7 60 -22 -19 c-26 -23 -37 -16 -21 15 8 13 10 41
7 71 -5 43 -4 48 13 48 41 0 17 84 -27 95 -15 3 -36 14 -45 22 -19 17 -25 63
-8 63 6 0 10 -7 10 -15 0 -8 5 -15 10 -15 6 0 10 12 10 26 0 25 3 26 34 21
l34 -5 -11 33 c-7 23 -7 54 0 94 9 60 9 61 -14 61 -50 0 -99 90 -58 106 8 4
15 18 15 33 1 25 1 26 16 6 10 -13 14 -32 10 -52 -4 -30 12 -51 28 -36 10 10
7 135 -3 129 -5 -4 -19 22 -30 56 -23 67 -26 98 -12 98 6 0 7 16 4 35 -6 39 1
43 35 19 22 -15 23 -15 16 13 -3 15 -8 36 -11 46 -2 9 1 41 8 71 10 47 9 66
-9 147 -29 132 -34 209 -20 321 9 71 9 109 1 144 -10 44 -9 50 13 79 13 18 24
40 24 50 0 16 -1 16 -27 0 -25 -17 -27 -17 -40 1 -7 10 -13 39 -13 66 0 44 2
48 24 48 34 0 42 18 14 30 -22 10 -23 17 -24 110 0 54 3 97 6 95 4 -3 13 -25
20 -50 12 -43 23 -55 34 -36 3 5 -1 14 -9 21 -19 16 -19 68 0 145 19 78 19
124 0 145 -15 17 -11 55 5 45 5 -3 11 4 15 15 4 12 -3 36 -19 63 -31 53 -34
114 -7 148 14 17 16 30 10 51 -4 15 -5 61 -2 102 4 56 2 85 -10 115 -9 22 -12
43 -8 46 5 3 11 0 13 -7 3 -7 11 23 20 66 l16 78 -57 -6 c-31 -3 -122 -9 -203
-12 -105 -5 -148 -10 -148 -19 0 -22 -36 -45 -71 -45 -48 -1 -113 -17 -117
-29 -2 -6 -26 -11 -54 -11 -53 0 -64 19 -17 30 20 5 16 8 -25 19 -28 7 -65 25
-83 42 -32 27 -38 29 -116 28 -45 -1 -116 -8 -157 -15z m528 -341 c16 -4 30
-21 43 -49 10 -24 22 -44 27 -44 5 0 15 -26 22 -57 7 -32 17 -66 22 -76 6 -13
3 -25 -11 -44 -25 -31 -27 -88 -6 -183 20 -92 19 -126 -6 -149 -20 -18 -21
-27 -16 -101 3 -49 1 -82 -5 -86 -15 -10 -1 -101 24 -152 19 -40 19 -44 4 -55
-26 -19 -24 -166 3 -237 25 -65 26 -80 6 -80 -10 0 -15 -10 -15 -28 0 -16 -7
-73 -15 -128 -8 -56 -13 -159 -12 -239 1 -94 -5 -180 -17 -261 -21 -136 -17
-179 21 -224 14 -17 31 -49 38 -72 11 -41 12 -41 24 -20 17 32 31 18 31 -30 0
-26 -6 -45 -17 -53 -10 -8 -18 -32 -21 -68 -4 -52 -6 -56 -34 -62 -23 -5 -34
-17 -48 -51 -13 -30 -27 -45 -44 -50 -33 -8 -59 2 -29 11 29 9 20 25 -13 25
-23 0 -25 3 -20 28 l6 27 -90 1 c-67 1 -90 -2 -90 -12 0 -7 -12 -26 -26 -43
-29 -34 -77 -43 -88 -15 -4 10 -13 13 -26 9 -24 -7 -26 7 -5 25 9 7 27 10 44
7 34 -7 64 16 35 27 -25 10 -124 7 -124 -3 0 -6 -32 -20 -72 -33 -54 -17 -72
-20 -75 -11 -3 9 -17 11 -45 7 l-40 -7 17 32 c16 33 16 33 -7 26 -13 -4 -31
-9 -41 -12 -10 -3 -46 1 -80 7 -53 11 -71 10 -127 -5 -110 -29 -224 -37 -337
-23 -75 8 -114 9 -149 1 -44 -10 -50 -9 -79 13 -30 23 -65 32 -65 17 0 -3 8
-15 17 -26 17 -18 17 -19 -2 -33 -10 -8 -40 -14 -66 -14 -45 0 -48 2 -51 28
-3 31 -19 34 -32 6 -8 -17 -21 -19 -107 -20 -54 0 -96 3 -94 6 3 4 25 13 50
20 45 13 55 23 34 36 -7 4 -16 -1 -21 -10 -11 -20 -59 -20 -148 -1 -84 19
-125 19 -144 0 -11 -11 -21 -12 -38 -6 -13 6 -17 10 -8 11 9 1 6 5 -8 10 -18
8 -34 4 -73 -16 -40 -21 -59 -25 -96 -21 -28 3 -52 12 -59 22 -7 9 -17 14 -22
11 -5 -3 -12 21 -16 54 -4 33 -14 66 -22 75 -10 10 -14 29 -12 57 3 46 19 54
29 16 4 -18 8 -12 19 31 8 29 20 56 28 58 24 10 44 65 43 123 0 31 -8 102 -16
156 -10 61 -16 156 -16 249 1 164 -23 353 -46 370 -12 9 -11 19 7 60 12 28 24
73 27 101 6 57 -4 165 -15 161 -14 -4 -12 14 5 46 15 26 18 57 18 179 0 128
-2 148 -17 157 -22 14 -23 65 -3 180 16 90 8 154 -20 165 -12 4 -12 10 -1 38
7 18 19 57 26 86 10 41 18 55 37 63 39 15 67 11 117 -16 57 -30 67 -31 89 -5
20 24 33 25 41 5 7 -19 69 -19 156 0 85 19 115 18 135 -1 12 -12 19 -14 27 -6
8 8 4 14 -16 22 -15 5 -31 10 -35 10 -4 0 -16 7 -27 16 -19 15 -19 15 1 10 29
-7 125 -8 155 -1 20 5 27 1 35 -17 14 -32 29 -29 33 6 4 28 4 28 58 24 68 -6
83 -18 61 -52 -22 -33 -2 -40 37 -13 25 18 48 21 165 24 134 4 182 4 251 4 19
0 79 -10 133 -22 87 -20 106 -21 156 -11 39 8 67 9 91 2 49 -14 51 -13 35 18
-17 32 -7 38 35 23 24 -8 30 -7 30 5 0 7 3 14 7 14 19 0 143 -45 143 -52 0
-11 128 -10 135 1 8 14 -16 25 -50 23 -16 -2 -39 4 -50 12 -19 15 -19 15 8 16
15 0 30 7 33 15 16 41 114 -15 114 -65 0 -16 5 -20 18 -16 46 13 100 16 131 7
l33 -10 -6 34 c-7 35 -7 35 31 36 l38 1 -28 12 c-40 18 -24 32 21 19z"/>
<path d="M8711 10058 c-5 -13 -19 -31 -30 -40 -12 -10 -21 -29 -21 -43 0 -14
-4 -25 -10 -25 -5 0 -10 -12 -10 -26 0 -21 3 -24 14 -15 11 9 15 6 21 -16 3
-16 14 -36 22 -45 13 -15 14 -33 7 -115 -5 -54 -8 -118 -7 -143 2 -60 -18
-219 -28 -226 -4 -2 -1 -23 7 -46 17 -48 18 -92 4 -119 -8 -13 -7 -25 1 -41
15 -28 13 -166 -2 -185 -9 -10 -9 -31 0 -85 9 -57 9 -75 -2 -92 -13 -21 -8
-59 14 -96 5 -8 13 -25 19 -37 5 -13 14 -23 20 -23 6 0 8 5 5 10 -3 6 1 10 9
10 9 0 16 8 16 18 0 14 10 17 49 18 42 1 51 -2 60 -23 11 -24 31 -28 66 -13
18 8 17 9 -7 9 -34 1 -45 17 -18 26 11 4 45 -3 75 -14 62 -23 68 -25 61 -12
-3 4 7 6 22 3 23 -4 25 -3 15 10 -11 12 -2 14 70 12 45 -1 111 -7 145 -12 35
-6 69 -9 75 -6 7 2 46 6 87 7 41 2 83 7 94 12 15 7 17 5 11 -13 -6 -20 -3 -22
29 -22 28 0 36 4 36 18 1 16 2 16 13 1 10 -13 21 -15 52 -9 22 4 32 8 22 9
-10 0 -15 6 -12 11 4 6 13 7 22 2 8 -5 35 -5 59 -1 23 5 71 6 106 3 154 -11
139 -15 153 39 8 30 9 50 2 54 -6 3 -7 38 -3 90 5 59 4 89 -4 99 -8 9 -10 41
-6 101 7 108 7 111 5 176 -1 29 4 63 10 76 9 16 9 26 1 36 -6 7 -15 90 -21
187 -6 95 -13 195 -16 222 -4 39 -1 54 16 77 12 15 21 35 21 43 0 20 17 29 23
14 3 -7 6 -1 6 14 1 15 -3 30 -9 33 -5 3 -10 19 -10 34 0 35 -36 57 -77 47
-47 -12 -152 -16 -197 -7 -24 4 -51 4 -59 -1 -9 -5 -18 -4 -22 2 -3 5 2 11 12
11 10 1 0 5 -22 9 -31 6 -42 4 -52 -9 -11 -15 -12 -15 -13 2 0 13 -8 17 -36
17 -32 0 -35 -2 -29 -22 6 -18 4 -20 -11 -13 -11 5 -53 10 -94 12 -41 1 -80 5
-87 7 -6 3 -40 0 -75 -6 -34 -5 -100 -11 -144 -12 -69 -2 -81 0 -76 12 4 12 0
14 -16 10 -12 -4 -20 -2 -16 3 7 13 2 12 -61 -12 -52 -19 -95 -19 -95 2 0 5
15 9 33 10 27 0 29 2 12 9 -35 15 -55 11 -66 -13 -9 -21 -18 -24 -60 -23 -39
1 -49 4 -49 19 0 9 -7 17 -16 17 -8 0 -12 5 -9 10 3 6 1 10 -5 10 -6 0 -14
-10 -19 -22z"/>
<path d="M6720 10315 l0 -235 -235 0 c-129 0 -235 -2 -235 -4 0 -3 14 -25 30
-50 42 -62 62 -122 62 -186 0 -64 -20 -124 -62 -186 -16 -25 -30 -47 -30 -50
0 -2 106 -4 235 -4 l235 0 0 -240 0 -240 -413 0 c-413 0 -414 0 -457 -23 -30
-16 -51 -37 -67 -67 -21 -40 -23 -55 -23 -217 l0 -173 -240 0 -240 0 0 240 0
240 173 0 c162 0 177 2 217 23 30 16 51 37 67 67 23 43 23 47 23 390 0 343 0
347 -23 390 -16 30 -37 51 -67 67 -43 23 -47 23 -390 23 -343 0 -347 0 -390
-23 -30 -16 -51 -37 -67 -67 l-23 -43 0 -1307 0 -1307 23 -43 c16 -30 37 -51
67 -67 40 -21 55 -23 217 -23 l173 0 0 -240 0 -240 -475 0 c-261 0 -475 -3
-475 -6 0 -3 9 -19 20 -34 44 -61 73 -143 73 -200 0 -57 -29 -139 -73 -200
-11 -15 -20 -31 -20 -34 0 -3 106 -6 235 -6 l235 0 0 -173 c0 -162 2 -177 23
-217 16 -30 37 -51 67 -67 40 -21 55 -23 217 -23 l173 0 0 -235 c0 -129 3
-235 6 -235 3 0 18 8 32 19 46 32 108 60 157 71 62 14 146 -7 220 -55 31 -19
58 -35 60 -35 3 0 5 106 5 235 l0 235 475 0 c261 0 475 3 475 6 0 3 -9 19 -20
34 -44 61 -73 143 -73 200 0 57 29 139 73 200 11 15 20 31 20 34 0 3 -106 6
-235 6 l-235 0 0 173 c0 162 -2 177 -23 217 -16 30 -37 51 -67 67 -40 21 -55
23 -217 23 l-173 0 0 240 0 240 480 0 480 0 0 -475 c0 -261 3 -475 6 -475 3 0
18 8 32 19 46 32 108 60 157 71 62 14 146 -7 220 -55 31 -19 58 -35 60 -35 3
0 5 968 5 2150 0 1183 -2 2150 -4 2150 -3 0 -25 -14 -50 -30 -49 -34 -101 -54
-162 -64 -50 -9 -147 21 -212 65 -24 16 -45 29 -48 29 -2 0 -4 -106 -4 -235z
m0 -2155 l0 -480 -240 0 -240 0 0 480 0 480 240 0 240 0 0 -480z m-960 -240
l0 -240 -240 0 -240 0 0 240 0 240 240 0 240 0 0 -240z"/>
<path d="M976 9274 c-5 -14 -4 -15 9 -4 17 14 19 20 6 20 -5 0 -12 -7 -15 -16z"/>
<path d="M4265 9280 c3 -5 8 -10 11 -10 2 0 4 5 4 10 0 6 -5 10 -11 10 -5 0
-7 -4 -4 -10z"/>
<path d="M7720 9275 c0 -8 2 -15 4 -15 2 0 6 7 10 15 3 8 1 15 -4 15 -6 0 -10
-7 -10 -15z"/>
<path d="M11000 9286 c0 -2 7 -9 15 -16 13 -11 14 -10 9 4 -5 14 -24 23 -24
12z"/>
<path d="M2010 7177 c-30 -16 -51 -37 -67 -67 l-23 -43 0 -827 0 -827 23 -43
c16 -30 37 -51 67 -67 40 -21 55 -23 217 -23 l173 0 0 -235 c0 -129 3 -235 6
-235 3 0 19 9 34 20 61 44 143 73 200 73 57 0 139 -29 200 -73 15 -11 31 -20
34 -20 3 0 6 106 6 235 l0 235 235 0 c129 0 235 3 235 6 0 3 -9 19 -20 34 -44
61 -73 143 -73 200 0 57 29 139 73 200 11 15 20 31 20 34 0 3 -214 6 -475 6
l-475 0 0 480 0 480 240 0 240 0 0 -173 c0 -162 2 -177 23 -217 16 -30 37 -51
67 -67 43 -23 47 -23 390 -23 343 0 347 0 390 23 30 16 51 37 67 67 21 40 23
55 23 217 l0 173 235 0 c129 0 235 3 235 6 0 3 -8 18 -19 32 -32 46 -60 108
-71 157 -14 62 7 146 55 220 19 31 35 58 35 60 0 3 -508 5 -1128 5 l-1129 0
-43 -23z"/>
<path d="M7770 7177 c-30 -16 -51 -37 -67 -67 -23 -43 -23 -47 -23 -390 0
-343 0 -347 23 -390 16 -30 37 -51 67 -67 l43 -23 587 0 587 0 43 23 c30 16
51 37 67 67 21 40 23 55 23 217 l0 173 240 0 240 0 0 -480 0 -480 -235 0
c-129 0 -235 -3 -235 -6 0 -3 9 -19 20 -34 44 -61 73 -143 73 -200 0 -57 -29
-139 -73 -200 -11 -15 -20 -31 -20 -34 0 -3 320 -6 710 -6 391 0 710 3 710 6
0 3 -9 19 -20 34 -44 61 -73 143 -73 200 0 57 29 139 73 200 11 15 20 31 20
34 0 3 -106 6 -235 6 l-235 0 0 653 0 654 -23 43 c-16 30 -37 51 -67 67 l-43
23 -1067 0 -1067 0 -43 -23z"/>
<path d="M1053 7150 c-52 -31 -63 -64 -63 -190 0 -183 27 -210 210 -210 183 0
210 27 210 210 0 183 -27 210 -210 210 -96 0 -120 -3 -147 -20z"/>
<path d="M10653 6670 c-52 -31 -63 -64 -63 -190 0 -183 27 -210 210 -210 183
0 210 27 210 210 0 183 -27 210 -210 210 -96 0 -120 -3 -147 -20z"/>
<path d="M7200 5760 c0 -258 3 -470 6 -470 3 0 18 8 32 19 46 32 108 60 157
71 62 14 146 -7 220 -55 31 -19 58 -35 60 -35 3 0 5 212 5 470 0 259 -2 470
-5 470 -2 0 -29 -16 -60 -35 -74 -48 -158 -69 -220 -55 -49 11 -111 39 -157
71 -14 11 -29 19 -32 19 -3 0 -6 -211 -6 -470z"/>
<path d="M1053 6190 c-52 -31 -63 -64 -63 -190 0 -183 27 -210 210 -210 183 0
210 27 210 210 0 183 -27 210 -210 210 -96 0 -120 -3 -147 -20z"/>
<path d="M3933 6190 c-52 -31 -63 -64 -63 -190 0 -183 27 -210 210 -210 183 0
210 27 210 210 0 183 -27 210 -210 210 -96 0 -120 -3 -147 -20z"/>
<path d="M8160 5515 l0 -235 -235 0 c-129 0 -235 -3 -235 -6 0 -3 9 -19 20
-34 44 -61 73 -143 73 -200 0 -57 -29 -139 -73 -200 -11 -15 -20 -31 -20 -34
0 -3 106 -6 235 -6 l235 0 0 -240 0 -240 -480 0 -480 0 0 235 c0 129 -3 235
-6 235 -3 0 -19 -9 -34 -20 -61 -44 -143 -73 -200 -73 -57 0 -139 29 -200 73
-15 11 -31 20 -34 20 -3 0 -6 -184 -6 -408 0 -403 0 -408 23 -452 16 -33 34
-51 67 -67 41 -21 58 -23 217 -23 l173 0 0 -235 c0 -129 3 -235 6 -235 3 0 19
9 34 20 132 94 268 94 400 0 15 -11 31 -20 34 -20 3 0 6 106 6 235 l0 235 413
0 c408 0 413 0 457 23 31 15 51 35 67 66 21 41 23 56 23 218 l0 173 235 0
c129 0 235 3 235 6 0 3 -9 19 -20 34 -44 61 -73 143 -73 200 0 57 29 139 73
200 11 15 20 31 20 34 0 3 -106 6 -235 6 l-235 0 0 475 c0 261 -2 475 -5 475
-2 0 -29 -16 -60 -35 -74 -48 -158 -69 -220 -55 -49 11 -111 39 -157 71 -14
11 -29 19 -32 19 -3 0 -6 -106 -6 -235z"/>
<path d="M4413 5710 c-52 -31 -63 -64 -63 -190 0 -183 27 -210 210 -210 183 0
210 27 210 210 0 183 -27 210 -210 210 -96 0 -120 -3 -147 -20z"/>
<path d="M3370 5274 c0 -3 9 -19 20 -34 44 -61 73 -143 73 -200 0 -57 -29
-139 -73 -200 -11 -15 -20 -31 -20 -34 0 -3 212 -6 470 -6 259 0 470 3 470 6
0 3 -9 19 -20 34 -44 61 -73 143 -73 200 0 57 29 139 73 200 11 15 20 31 20
34 0 3 -211 6 -470 6 -258 0 -470 -3 -470 -6z"/>
<path d="M5850 5258 c-33 -17 -51 -35 -67 -68 -23 -44 -23 -49 -23 -457 l0
-413 -235 0 c-129 0 -235 -3 -235 -6 0 -3 9 -19 20 -34 44 -61 73 -143 73
-200 0 -57 -29 -139 -73 -200 -11 -15 -20 -31 -20 -34 0 -3 184 -6 408 -6 403
0 408 0 452 23 31 15 51 35 67 66 23 44 23 46 23 458 l0 413 235 0 c129 0 235
3 235 6 0 3 -9 19 -20 34 -44 61 -73 143 -73 200 0 57 29 139 73 200 11 15 20
31 20 34 0 3 -184 6 -408 6 -403 0 -408 0 -452 -22z"/>
<path d="M4800 4800 c0 -258 3 -470 6 -470 3 0 19 9 34 20 61 44 143 73 200
73 57 0 139 -29 200 -73 15 -11 31 -20 34 -20 3 0 6 212 6 470 0 259 -2 470
-5 470 -2 0 -29 -16 -60 -35 -74 -48 -158 -69 -220 -55 -49 11 -111 39 -157
71 -14 11 -29 19 -32 19 -3 0 -6 -211 -6 -470z"/>
<path d="M1533 5230 c-52 -31 -63 -64 -63 -190 0 -183 27 -210 210 -210 183 0
210 27 210 210 0 183 -27 210 -210 210 -96 0 -120 -3 -147 -20z"/>
<path d="M10653 5230 c-52 -31 -63 -64 -63 -190 0 -183 27 -210 210 -210 183
0 210 27 210 210 0 183 -27 210 -210 210 -96 0 -120 -3 -147 -20z"/>
<path d="M971 4274 c1 -46 2 -47 9 -16 14 58 23 49 16 -15 -3 -35 -9 -91 -12
-125 l-7 -63 22 19 c26 23 37 16 21 -15 -8 -13 -10 -41 -7 -71 5 -43 4 -48
-13 -48 -13 0 -20 -7 -20 -19 0 -41 19 -69 54 -81 37 -12 56 -35 56 -67 -1
-17 -1 -17 -14 0 -18 24 -26 21 -26 -9 0 -25 -3 -26 -34 -21 l-33 5 9 -38 c7
-25 7 -59 1 -94 -10 -55 -10 -56 14 -56 50 0 100 -90 58 -106 -8 -4 -15 -18
-15 -33 -1 -25 -1 -26 -16 -6 -10 13 -14 32 -10 52 4 30 -12 51 -28 36 -9 -10
-7 -135 2 -129 8 5 52 -117 52 -143 0 -7 -6 -11 -14 -8 -11 5 -12 -1 -3 -29
13 -43 5 -51 -28 -30 -28 18 -29 16 -15 -34 8 -25 7 -53 -1 -95 -10 -53 -9
-72 9 -150 24 -102 30 -219 18 -350 -5 -55 -5 -104 1 -125 9 -32 7 -39 -18
-69 -35 -42 -29 -70 9 -45 24 16 26 16 39 -2 7 -10 13 -39 13 -66 0 -44 -2
-48 -24 -48 -34 0 -42 -18 -14 -30 22 -10 23 -16 23 -112 l0 -101 -17 39 c-10
21 -18 45 -18 52 0 14 -16 16 -24 3 -3 -5 1 -14 9 -21 19 -15 19 -56 0 -140
-19 -85 -19 -129 0 -150 15 -17 11 -55 -5 -45 -22 14 -19 -38 6 -85 21 -40 25
-60 21 -93 -3 -23 -13 -47 -22 -53 -14 -10 -14 -18 -4 -60 7 -28 9 -49 3 -51
-12 -4 -1 -129 14 -167 10 -23 10 -27 -1 -23 -11 4 -18 -13 -30 -66 -9 -39
-14 -73 -13 -74 2 -2 93 2 203 9 l199 11 16 27 c14 24 23 27 89 33 49 4 77 11
85 22 14 19 108 22 102 3 -3 -7 -15 -15 -29 -18 -20 -5 -16 -8 26 -19 28 -8
62 -25 76 -38 44 -41 88 -45 244 -22 76 11 161 19 187 17 26 -2 48 0 48 3 0 3
24 2 53 -2 81 -11 346 23 359 46 6 10 22 8 75 -11 68 -24 142 -30 215 -18 21
4 35 10 32 15 -8 14 10 11 57 -10 38 -17 62 -19 183 -16 114 3 141 7 148 19
11 20 66 20 178 1 88 -16 134 -13 161 11 13 12 27 11 95 -6 43 -12 102 -23
129 -26 28 -2 64 -7 82 -10 18 -4 69 3 121 15 50 12 97 18 106 15 17 -6 21 8
17 54 -1 13 7 39 19 59 24 41 38 146 22 165 -7 9 -7 25 1 55 9 35 8 43 -6 58
-28 28 -26 103 4 151 25 40 24 59 -3 86 -18 18 -19 22 -6 32 27 19 28 49 9
149 -20 100 -18 134 7 153 12 9 12 12 -1 22 -13 11 -18 5 -32 -38 -9 -27 -19
-50 -22 -50 -2 0 -3 33 -2 73 2 39 0 82 -4 93 -6 18 -3 23 18 28 34 9 32 34
-2 38 -33 4 -41 33 -24 90 13 42 25 47 53 22 16 -16 18 -15 24 0 4 10 -1 26
-13 39 -31 35 -33 41 -24 99 6 36 5 87 -3 154 -9 63 -10 108 -4 123 5 14 6 31
3 38 -3 8 2 47 10 86 34 156 34 163 21 208 -7 25 -9 55 -5 69 12 43 10 63 -6
56 -8 -3 -22 -9 -31 -13 -14 -5 -16 -2 -11 19 4 15 10 34 14 44 4 11 3 15 -5
10 -6 -3 -13 -2 -16 3 -6 10 32 129 48 150 11 15 14 116 3 127 -3 4 -13 1 -22
-6 -11 -9 -12 -17 -4 -32 8 -15 6 -26 -8 -46 l-18 -27 -3 25 c-2 14 -10 29
-18 33 -8 4 -14 16 -14 27 0 27 48 80 74 80 20 0 21 4 21 94 l0 93 -27 -8
c-29 -8 -38 3 -38 44 -1 21 -1 21 -15 -3 l-14 -25 -1 32 c0 29 5 35 48 55 42
21 47 27 50 61 3 29 0 37 -14 37 -14 0 -16 7 -10 48 4 35 2 53 -9 67 -8 11
-15 23 -15 28 0 14 23 7 36 -10 11 -16 13 -15 20 11 4 18 1 39 -8 60 -21 42
-31 93 -22 107 4 8 11 4 20 -12 10 -18 13 -20 14 -7 1 52 -42 91 -53 48 -6
-25 -45 -26 -130 -4 -38 10 -80 14 -112 10 -27 -3 -62 -6 -76 -6 -33 0 -155
-25 -193 -39 -23 -9 -32 -8 -53 9 -31 24 -68 25 -189 4 -98 -18 -144 -14 -144
13 0 14 -11 15 -90 10 -63 -5 -90 -3 -90 4 0 17 -106 2 -156 -22 -44 -21 -58
-24 -50 -10 19 30 -166 29 -252 -1 -60 -21 -64 -21 -73 -5 -6 11 -22 17 -43
17 -18 0 -58 5 -87 11 -30 6 -135 12 -234 14 -113 1 -225 8 -301 20 -138 21
-177 16 -221 -24 -17 -16 -47 -31 -67 -35 -40 -8 -58 -26 -26 -26 37 0 16 -25
-24 -28 -25 -2 -44 2 -56 13 -12 11 -48 20 -94 26 -49 5 -85 15 -103 28 -42
30 -134 49 -270 57 l-123 7 1 -49z m554 -324 c-3 -5 -13 -10 -21 -10 -8 0 -14
-4 -14 -10 0 -5 14 -10 31 -10 28 0 30 -2 25 -27 l-6 -28 90 -1 c67 -1 90 2
90 12 0 7 12 26 26 43 28 34 77 43 88 16 3 -8 15 -15 27 -15 19 0 20 -2 8 -16
-9 -11 -23 -14 -45 -11 -37 6 -67 -16 -38 -27 25 -10 124 -7 124 3 0 6 32 20
72 33 54 17 72 20 75 11 3 -9 17 -11 45 -7 l40 7 -17 -32 c-18 -36 -22 -35 44
-16 13 4 49 2 81 -5 51 -11 68 -10 146 9 99 23 238 30 359 17 52 -6 93 -5 119
2 35 10 42 9 71 -13 30 -24 65 -33 65 -18 0 3 -8 15 -17 26 -17 18 -17 19 2
33 10 8 40 14 66 14 45 0 48 -2 51 -27 4 -33 19 -36 32 -8 8 18 18 20 106 20
54 0 97 -2 94 -6 -2 -3 -24 -12 -49 -19 -45 -13 -55 -23 -34 -36 7 -4 16 1 21
10 11 20 59 20 148 1 84 -19 125 -19 144 0 11 11 21 12 38 6 13 -6 17 -10 8
-11 -9 -1 -6 -5 8 -11 18 -7 34 -3 70 16 26 14 61 25 79 25 36 0 83 -18 83
-33 0 -5 6 -7 14 -4 10 4 15 -9 20 -54 4 -32 14 -65 22 -74 10 -10 14 -29 12
-57 -3 -46 -19 -55 -28 -16 -5 19 -9 14 -20 -27 -7 -28 -24 -59 -37 -70 -45
-37 -47 -97 -13 -309 6 -37 10 -108 9 -159 -3 -195 20 -404 46 -419 10 -6 8
-22 -11 -75 -24 -68 -30 -142 -18 -215 4 -21 10 -35 15 -32 14 9 10 -15 -8
-49 -15 -26 -18 -58 -18 -177 0 -126 2 -147 18 -158 21 -16 22 -59 1 -176 -17
-97 -12 -137 18 -165 11 -11 15 -21 9 -25 -5 -4 -17 -40 -27 -82 -14 -63 -20
-77 -41 -85 -39 -15 -67 -11 -117 16 -57 30 -67 31 -89 5 -20 -24 -33 -25 -41
-5 -7 19 -78 19 -166 0 -85 -19 -105 -18 -125 1 -12 12 -19 14 -27 6 -8 -8 -4
-14 16 -22 15 -5 31 -10 35 -10 4 0 15 -6 24 -13 15 -10 5 -11 -55 -6 -40 3
-81 2 -90 -3 -27 -13 -35 -10 -42 18 -8 31 -28 27 -36 -7 -6 -22 -11 -24 -58
-24 -65 1 -80 14 -57 48 23 35 3 44 -36 16 -31 -22 -94 -27 -349 -30 -86 -1
-105 2 -192 22 -68 16 -104 20 -142 14 -70 -10 -85 -10 -129 -1 l-38 7 16 -32
17 -32 -28 6 c-16 3 -37 9 -47 12 -13 6 -16 3 -11 -9 3 -9 3 -16 -2 -16 -20 0
-144 45 -144 52 0 10 -124 11 -133 1 -14 -14 15 -32 43 -26 18 3 37 -1 51 -11
l23 -16 -31 0 c-18 0 -33 -6 -37 -15 -14 -39 -106 17 -106 64 0 17 -5 20 -22
17 -63 -13 -87 -14 -122 -6 l-37 8 3 -31 c3 -30 1 -32 -32 -35 l-35 -4 25 -13
25 -14 -31 -1 c-26 0 -34 5 -44 33 -7 17 -21 41 -31 52 -10 11 -23 42 -29 69
-6 27 -15 57 -21 68 -8 14 -5 25 10 45 25 31 27 81 6 190 -20 102 -19 119 6
142 18 17 20 28 17 100 -2 45 1 81 6 81 15 0 -3 122 -24 157 -24 41 -25 53 -5
53 28 0 24 165 -6 244 -23 61 -24 76 -4 76 10 0 15 10 15 30 0 17 6 72 14 123
9 51 15 158 14 242 0 96 6 187 17 255 22 137 17 188 -23 234 -17 20 -34 51
-38 71 -7 39 -19 45 -27 14 -9 -34 -26 -12 -25 33 0 26 6 47 16 54 9 7 17 33
20 67 4 52 6 56 34 62 23 5 34 17 48 50 10 23 24 45 32 48 23 10 59 7 53 -3z"/>
<path d="M1990 3336 c-5 -14 -18 -30 -30 -36 -11 -6 -20 -21 -20 -35 0 -13 -4
-27 -10 -30 -5 -3 -10 -18 -10 -32 0 -21 2 -24 15 -13 12 10 15 9 15 -7 0 -11
10 -33 21 -47 20 -25 21 -34 13 -109 -4 -45 -8 -120 -9 -167 -2 -103 -14 -208
-25 -215 -5 -3 -1 -28 8 -55 13 -41 14 -59 5 -92 -7 -27 -8 -49 -2 -60 13 -24
11 -165 -3 -187 -8 -14 -8 -35 -1 -82 8 -48 8 -70 -1 -89 -12 -25 -6 -65 15
-100 5 -8 13 -25 19 -37 5 -13 17 -23 27 -23 15 0 16 2 3 10 -13 8 -12 10 3
10 9 0 17 8 17 18 0 25 98 25 106 0 8 -28 36 -37 64 -22 23 13 16 19 -17 15
-6 -1 -14 3 -17 8 -12 19 32 21 86 2 58 -20 116 -18 99 3 -12 15 119 14 209
-1 59 -10 233 -2 264 12 15 7 17 5 11 -13 -4 -16 -2 -22 9 -22 8 0 22 -3 31
-6 11 -5 18 0 22 16 5 19 8 20 17 9 7 -8 30 -14 59 -14 38 -1 44 1 28 9 -12 5
-21 13 -21 18 0 5 8 5 18 -1 10 -5 39 -5 76 1 42 7 65 7 76 0 12 -7 21 -7 28
0 8 8 22 8 50 -1 59 -20 74 -13 87 39 8 29 9 52 2 64 -5 11 -6 50 -2 93 4 48
3 78 -4 87 -6 8 -9 45 -6 97 3 46 5 114 4 152 0 37 5 84 11 103 9 28 10 38 1
44 -8 4 -14 52 -17 131 -2 68 -10 168 -16 222 -11 94 -10 99 10 127 12 16 22
36 22 44 0 20 17 29 23 14 3 -7 6 -1 6 14 1 15 -3 30 -9 33 -5 3 -10 18 -10
32 0 46 -51 66 -105 41 -20 -9 -31 -9 -44 -1 -13 8 -22 8 -29 1 -8 -8 -29 -8
-74 -1 -39 7 -70 7 -80 1 -10 -5 -18 -5 -18 0 0 5 9 13 21 18 16 8 10 10 -28
9 -29 0 -52 -6 -59 -14 -9 -11 -12 -10 -17 9 -4 16 -11 21 -22 16 -9 -3 -23
-6 -31 -6 -11 0 -13 -6 -9 -22 6 -18 4 -20 -11 -13 -31 14 -205 22 -264 12
-90 -15 -221 -16 -209 -1 17 21 -41 23 -99 3 -54 -19 -98 -17 -86 2 3 5 11 9
17 8 33 -4 40 2 17 15 -28 15 -56 6 -64 -22 -8 -25 -106 -25 -106 1 0 9 -8 17
-17 17 -15 0 -16 2 -3 10 13 8 12 10 -3 10 -10 0 -22 -11 -27 -24z"/>
<path d="M9690 4298 c-33 -17 -51 -35 -67 -68 -21 -41 -23 -58 -23 -217 l0
-173 -235 0 c-129 0 -235 -3 -235 -6 0 -3 9 -19 20 -34 94 -132 94 -268 0
-400 -11 -15 -20 -31 -20 -34 0 -3 184 -6 408 -6 403 0 408 0 452 23 33 16 51
34 68 67 20 41 22 58 22 217 l0 173 235 0 c129 0 235 3 235 6 0 3 -9 19 -20
34 -44 61 -73 143 -73 200 0 57 29 139 73 200 11 15 20 31 20 34 0 3 -184 6
-408 6 -403 0 -408 0 -452 -22z"/>
<path d="M4800 2942 l0 -888 23 -44 c16 -33 34 -51 67 -68 44 -22 49 -22 452
-22 224 0 408 3 408 6 0 3 -9 19 -20 34 -94 132 -94 268 0 400 11 15 20 31 20
34 0 3 -106 6 -235 6 l-235 0 0 715 c0 393 -3 715 -6 715 -3 0 -19 -9 -34 -20
-132 -94 -268 -94 -400 0 -15 11 -31 20 -34 20 -3 0 -6 -400 -6 -888z"/>
<path d="M6333 3790 c-52 -31 -63 -64 -63 -190 0 -183 27 -210 210 -210 183 0
210 27 210 210 0 183 -27 210 -210 210 -96 0 -120 -3 -147 -20z"/>
<path d="M10090 3354 c0 -3 9 -19 20 -34 75 -106 91 -216 46 -315 -14 -31 -34
-69 -46 -85 -11 -15 -20 -31 -20 -34 0 -3 212 -6 470 -6 259 0 470 3 470 6 0
3 -9 19 -20 34 -94 132 -94 268 0 400 11 15 20 31 20 34 0 3 -211 6 -470 6
-258 0 -470 -3 -470 -6z"/>
<path d="M7680 3115 l0 -235 -173 0 c-159 0 -176 -2 -217 -22 -33 -17 -51 -35
-67 -68 -21 -41 -23 -58 -23 -217 l0 -173 -240 0 -240 0 0 173 c0 159 -2 176
-22 217 -17 33 -35 51 -68 68 -44 22 -49 22 -452 22 -224 0 -408 -3 -408 -6 0
-3 9 -19 20 -34 94 -132 94 -268 0 -400 -11 -15 -20 -31 -20 -34 0 -3 106 -6
235 -6 l235 0 0 -173 c0 -159 2 -176 23 -217 16 -33 34 -51 67 -67 44 -23 49
-23 457 -23 l413 0 0 -235 c0 -129 3 -235 6 -235 3 0 19 9 34 20 132 94 268
94 400 0 15 -11 31 -20 34 -20 3 0 6 106 6 235 l0 235 173 0 c159 0 176 2 217
23 33 16 51 34 68 67 20 41 22 58 22 217 l0 173 475 0 c261 0 475 3 475 6 0 3
-9 19 -20 34 -75 106 -91 216 -46 315 14 31 34 69 46 85 11 15 20 31 20 34 0
3 -214 6 -475 6 l-475 0 0 235 c0 129 -3 235 -6 235 -3 0 -19 -9 -34 -20 -132
-94 -268 -94 -400 0 -15 11 -31 20 -34 20 -3 0 -6 -106 -6 -235z"/>
<path d="M6813 3310 c-52 -31 -63 -64 -63 -190 0 -183 27 -210 210 -210 183 0
210 27 210 210 0 183 -27 210 -210 210 -96 0 -120 -3 -147 -20z"/>
<path d="M9600 2635 l0 -235 -173 0 c-159 0 -176 -2 -217 -22 -33 -17 -51 -35
-67 -68 l-23 -44 0 -648 c0 -356 3 -648 6 -648 3 0 19 9 34 20 106 75 216 91
315 46 31 -14 69 -34 85 -46 15 -11 31 -20 34 -20 3 0 6 106 6 235 l0 235 173
0 c159 0 176 2 217 23 33 16 51 34 68 67 l22 44 0 648 c0 356 -3 648 -6 648
-3 0 -19 -9 -34 -20 -132 -94 -268 -94 -400 0 -15 11 -31 20 -34 20 -3 0 -6
-106 -6 -235z"/>
<path d="M970 2732 c0 -12 19 -26 26 -19 2 2 -2 10 -11 17 -9 8 -15 8 -15 2z"/>
<path d="M4266 2725 c-3 -8 -1 -15 4 -15 6 0 10 7 10 15 0 8 -2 15 -4 15 -2 0
-6 -7 -10 -15z"/>
<path d="M8253 1870 c-52 -31 -63 -64 -63 -192 0 -180 32 -213 210 -213 178 0
210 33 210 213 0 185 -26 212 -210 212 -96 0 -120 -3 -147 -20z"/>
<path d="M5770 1434 c0 -3 9 -19 20 -34 75 -106 91 -216 46 -315 -14 -31 -34
-69 -46 -85 -11 -15 -20 -31 -20 -34 0 -3 212 -6 470 -6 259 0 470 3 470 6 0
3 -9 19 -20 34 -94 132 -94 268 0 400 11 15 20 31 20 34 0 3 -211 6 -470 6
-258 0 -470 -3 -470 -6z"/>
<path d="M4943 1411 c-92 -24 -118 -69 -118 -211 0 -175 39 -215 215 -215 176
0 215 39 215 215 0 119 -15 159 -73 193 -37 22 -182 33 -239 18z"/>
<path d="M7823 1411 c-92 -24 -118 -69 -118 -211 0 -175 39 -215 215 -215 176
0 215 39 215 215 0 119 -15 159 -73 193 -37 22 -182 33 -239 18z"/>
<path d="M10223 1411 c-92 -24 -118 -69 -118 -211 0 -175 39 -215 215 -215
176 0 215 39 215 215 0 119 -15 159 -73 193 -37 22 -182 33 -239 18z"/>
</g>
</svg>
